<?xml version="1.0" encoding="utf-8" standalone="no"?>
<!DOCTYPE svg PUBLIC "-//W3C//DTD SVG 1.1//EN"
  "http://www.w3.org/Graphics/SVG/1.1/DTD/svg11.dtd">
<svg xmlns:xlink="http://www.w3.org/1999/xlink" width="383.603125pt" height="254.18388pt" viewBox="0 0 383.603125 254.18388" xmlns="http://www.w3.org/2000/svg" version="1.1">
 <metadata>
  <rdf:RDF xmlns:dc="http://purl.org/dc/elements/1.1/" xmlns:cc="http://creativecommons.org/ns#" xmlns:rdf="http://www.w3.org/1999/02/22-rdf-syntax-ns#">
   <cc:Work>
    <dc:type rdf:resource="http://purl.org/dc/dcmitype/StillImage"/>
    <dc:date>2022-01-17T19:53:31.595276</dc:date>
    <dc:format>image/svg+xml</dc:format>
    <dc:creator>
     <cc:Agent>
      <dc:title>Matplotlib v3.5.0, https://matplotlib.org/</dc:title>
     </cc:Agent>
    </dc:creator>
   </cc:Work>
  </rdf:RDF>
 </metadata>
 <defs>
  <style type="text/css">*{stroke-linejoin: round; stroke-linecap: butt}</style>
 </defs>
 <g id="figure_1">
  <g id="patch_1">
   <path d="M 0 254.18388 
L 383.603125 254.18388 
L 383.603125 0 
L 0 0 
z
" style="fill: #ffffff"/>
  </g>
  <g id="axes_1">
   <g id="patch_2">
    <path d="M 45.203125 223.505755 
L 380.003125 223.505755 
L 380.003125 6.065755 
L 45.203125 6.065755 
z
" style="fill: #ffffff"/>
   </g>
   <g id="PathCollection_1">
    <defs>
     <path id="me26938565a" d="M -3.5 3.5 
L 3.5 3.5 
L 3.5 -3.5 
L -3.5 -3.5 
z
" style="stroke: #00beff"/>
    </defs>
    <g clip-path="url(#pafa1c897bf)">
     <use xlink:href="#me26938565a" x="60.421307" y="15.949391" style="fill: #00beff; stroke: #00beff"/>
     <use xlink:href="#me26938565a" x="66.164017" y="87.696708" style="fill: #00beff; stroke: #00beff"/>
     <use xlink:href="#me26938565a" x="71.906727" y="131.993281" style="fill: #00beff; stroke: #00beff"/>
     <use xlink:href="#me26938565a" x="77.649437" y="160.73475" style="fill: #00beff; stroke: #00beff"/>
     <use xlink:href="#me26938565a" x="83.392147" y="179.853496" style="fill: #00beff; stroke: #00beff"/>
     <use xlink:href="#me26938565a" x="89.134857" y="192.688662" style="fill: #00beff; stroke: #00beff"/>
     <use xlink:href="#me26938565a" x="94.877568" y="201.329791" style="fill: #00beff; stroke: #00beff"/>
     <use xlink:href="#me26938565a" x="100.620278" y="206.990236" style="fill: #00beff; stroke: #00beff"/>
     <use xlink:href="#me26938565a" x="106.362988" y="210.556171" style="fill: #00beff; stroke: #00beff"/>
     <use xlink:href="#me26938565a" x="112.105698" y="212.602304" style="fill: #00beff; stroke: #00beff"/>
     <use xlink:href="#me26938565a" x="117.848408" y="213.524156" style="fill: #00beff; stroke: #00beff"/>
     <use xlink:href="#me26938565a" x="123.591118" y="213.622119" style="fill: #00beff; stroke: #00beff"/>
     <use xlink:href="#me26938565a" x="129.333828" y="213.174456" style="fill: #00beff; stroke: #00beff"/>
     <use xlink:href="#me26938565a" x="135.076538" y="212.24705" style="fill: #00beff; stroke: #00beff"/>
     <use xlink:href="#me26938565a" x="140.819248" y="211.010173" style="fill: #00beff; stroke: #00beff"/>
     <use xlink:href="#me26938565a" x="146.561959" y="209.591165" style="fill: #00beff; stroke: #00beff"/>
     <use xlink:href="#me26938565a" x="152.304669" y="208.000204" style="fill: #00beff; stroke: #00beff"/>
     <use xlink:href="#me26938565a" x="158.047379" y="206.330244" style="fill: #00beff; stroke: #00beff"/>
     <use xlink:href="#me26938565a" x="163.790089" y="204.616053" style="fill: #00beff; stroke: #00beff"/>
     <use xlink:href="#me26938565a" x="169.532799" y="202.859293" style="fill: #00beff; stroke: #00beff"/>
     <use xlink:href="#me26938565a" x="175.275509" y="201.153013" style="fill: #00beff; stroke: #00beff"/>
     <use xlink:href="#me26938565a" x="181.018219" y="199.4984" style="fill: #00beff; stroke: #00beff"/>
     <use xlink:href="#me26938565a" x="186.760929" y="197.897353" style="fill: #00beff; stroke: #00beff"/>
     <use xlink:href="#me26938565a" x="192.50364" y="196.354587" style="fill: #00beff; stroke: #00beff"/>
     <use xlink:href="#me26938565a" x="198.24635" y="194.921694" style="fill: #00beff; stroke: #00beff"/>
     <use xlink:href="#me26938565a" x="203.98906" y="193.579492" style="fill: #00beff; stroke: #00beff"/>
     <use xlink:href="#me26938565a" x="209.73177" y="192.327671" style="fill: #00beff; stroke: #00beff"/>
     <use xlink:href="#me26938565a" x="215.47448" y="191.15841" style="fill: #00beff; stroke: #00beff"/>
     <use xlink:href="#me26938565a" x="221.21719" y="190.116462" style="fill: #00beff; stroke: #00beff"/>
     <use xlink:href="#me26938565a" x="226.9599" y="189.132319" style="fill: #00beff; stroke: #00beff"/>
     <use xlink:href="#me26938565a" x="232.70261" y="188.265203" style="fill: #00beff; stroke: #00beff"/>
     <use xlink:href="#me26938565a" x="238.445321" y="187.50025" style="fill: #00beff; stroke: #00beff"/>
     <use xlink:href="#me26938565a" x="244.188031" y="186.833808" style="fill: #00beff; stroke: #00beff"/>
     <use xlink:href="#me26938565a" x="249.930741" y="186.224404" style="fill: #00beff; stroke: #00beff"/>
     <use xlink:href="#me26938565a" x="255.673451" y="185.683037" style="fill: #00beff; stroke: #00beff"/>
     <use xlink:href="#me26938565a" x="261.416161" y="185.232122" style="fill: #00beff; stroke: #00beff"/>
     <use xlink:href="#me26938565a" x="267.158871" y="184.811928" style="fill: #00beff; stroke: #00beff"/>
     <use xlink:href="#me26938565a" x="272.901581" y="184.455624" style="fill: #00beff; stroke: #00beff"/>
     <use xlink:href="#me26938565a" x="278.644291" y="184.173823" style="fill: #00beff; stroke: #00beff"/>
     <use xlink:href="#me26938565a" x="284.387002" y="183.890624" style="fill: #00beff; stroke: #00beff"/>
     <use xlink:href="#me26938565a" x="290.129712" y="183.672931" style="fill: #00beff; stroke: #00beff"/>
     <use xlink:href="#me26938565a" x="295.872422" y="183.494035" style="fill: #00beff; stroke: #00beff"/>
     <use xlink:href="#me26938565a" x="301.615132" y="183.3187" style="fill: #00beff; stroke: #00beff"/>
     <use xlink:href="#me26938565a" x="307.357842" y="183.18229" style="fill: #00beff; stroke: #00beff"/>
     <use xlink:href="#me26938565a" x="313.100552" y="183.065464" style="fill: #00beff; stroke: #00beff"/>
     <use xlink:href="#me26938565a" x="318.843262" y="182.949698" style="fill: #00beff; stroke: #00beff"/>
     <use xlink:href="#me26938565a" x="324.585972" y="182.861245" style="fill: #00beff; stroke: #00beff"/>
     <use xlink:href="#me26938565a" x="330.328682" y="182.812118" style="fill: #00beff; stroke: #00beff"/>
     <use xlink:href="#me26938565a" x="336.071393" y="182.748357" style="fill: #00beff; stroke: #00beff"/>
     <use xlink:href="#me26938565a" x="341.814103" y="182.703961" style="fill: #00beff; stroke: #00beff"/>
     <use xlink:href="#me26938565a" x="347.556813" y="182.673798" style="fill: #00beff; stroke: #00beff"/>
     <use xlink:href="#me26938565a" x="353.299523" y="182.608566" style="fill: #00beff; stroke: #00beff"/>
     <use xlink:href="#me26938565a" x="359.042233" y="182.598454" style="fill: #00beff; stroke: #00beff"/>
     <use xlink:href="#me26938565a" x="364.784943" y="182.567816" style="fill: #00beff; stroke: #00beff"/>
    </g>
   </g>
   <g id="matplotlib.axis_1">
    <g id="xtick_1">
     <g id="line2d_1">
      <path d="M 94.877568 223.505755 
L 94.877568 6.065755 
" clip-path="url(#pafa1c897bf)" style="fill: none; stroke-dasharray: 2.96,1.28; stroke-dashoffset: 0; stroke: #93939c; stroke-opacity: 0.2; stroke-width: 0.8"/>
     </g>
     <g id="line2d_2">
      <defs>
       <path id="m09228d15c4" d="M 0 0 
L 0 -3.5 
" style="stroke: #707074; stroke-width: 0.8"/>
      </defs>
      <g>
       <use xlink:href="#m09228d15c4" x="94.877568" y="223.505755" style="fill: #707074; stroke: #707074; stroke-width: 0.8"/>
      </g>
     </g>
     <g id="text_1">
      <!-- 0.5 -->
      <g style="fill: #707074" transform="translate(86.926005 234.604192)scale(0.1 -0.1)">
       <defs>
        <path id="DejaVuSerif-30" d="M 2034 219 
Q 2513 219 2750 744 
Q 2988 1269 2988 2328 
Q 2988 3391 2750 3916 
Q 2513 4441 2034 4441 
Q 1556 4441 1318 3916 
Q 1081 3391 1081 2328 
Q 1081 1269 1318 744 
Q 1556 219 2034 219 
z
M 2034 -91 
Q 1275 -91 848 546 
Q 422 1184 422 2328 
Q 422 3475 848 4112 
Q 1275 4750 2034 4750 
Q 2797 4750 3222 4112 
Q 3647 3475 3647 2328 
Q 3647 1184 3222 546 
Q 2797 -91 2034 -91 
z
" transform="scale(0.015625)"/>
        <path id="DejaVuSerif-2e" d="M 603 325 
Q 603 500 722 622 
Q 841 744 1019 744 
Q 1191 744 1312 622 
Q 1434 500 1434 325 
Q 1434 153 1312 31 
Q 1191 -91 1019 -91 
Q 841 -91 722 29 
Q 603 150 603 325 
z
" transform="scale(0.015625)"/>
        <path id="DejaVuSerif-35" d="M 3219 4666 
L 3219 4153 
L 1081 4153 
L 1081 2816 
Q 1244 2928 1461 2984 
Q 1678 3041 1947 3041 
Q 2703 3041 3140 2622 
Q 3578 2203 3578 1478 
Q 3578 738 3136 323 
Q 2694 -91 1894 -91 
Q 1572 -91 1234 -12 
Q 897 66 544 225 
L 544 1131 
L 897 1131 
Q 925 688 1179 453 
Q 1434 219 1894 219 
Q 2388 219 2653 544 
Q 2919 869 2919 1478 
Q 2919 2084 2655 2407 
Q 2391 2731 1894 2731 
Q 1613 2731 1398 2631 
Q 1184 2531 1019 2322 
L 750 2322 
L 750 4666 
L 3219 4666 
z
" transform="scale(0.015625)"/>
       </defs>
       <use xlink:href="#DejaVuSerif-30"/>
       <use xlink:href="#DejaVuSerif-2e" x="63.623047"/>
       <use xlink:href="#DejaVuSerif-35" x="95.410156"/>
      </g>
     </g>
    </g>
    <g id="xtick_2">
     <g id="line2d_3">
      <path d="M 152.304669 223.505755 
L 152.304669 6.065755 
" clip-path="url(#pafa1c897bf)" style="fill: none; stroke-dasharray: 2.96,1.28; stroke-dashoffset: 0; stroke: #93939c; stroke-opacity: 0.2; stroke-width: 0.8"/>
     </g>
     <g id="line2d_4">
      <g>
       <use xlink:href="#m09228d15c4" x="152.304669" y="223.505755" style="fill: #707074; stroke: #707074; stroke-width: 0.8"/>
      </g>
     </g>
     <g id="text_2">
      <!-- 1.0 -->
      <g style="fill: #707074" transform="translate(144.353106 234.604192)scale(0.1 -0.1)">
       <defs>
        <path id="DejaVuSerif-31" d="M 909 0 
L 909 331 
L 1722 331 
L 1722 4213 
L 781 3603 
L 781 4013 
L 1919 4750 
L 2350 4750 
L 2350 331 
L 3163 331 
L 3163 0 
L 909 0 
z
" transform="scale(0.015625)"/>
       </defs>
       <use xlink:href="#DejaVuSerif-31"/>
       <use xlink:href="#DejaVuSerif-2e" x="63.623047"/>
       <use xlink:href="#DejaVuSerif-30" x="95.410156"/>
      </g>
     </g>
    </g>
    <g id="xtick_3">
     <g id="line2d_5">
      <path d="M 209.73177 223.505755 
L 209.73177 6.065755 
" clip-path="url(#pafa1c897bf)" style="fill: none; stroke-dasharray: 2.96,1.28; stroke-dashoffset: 0; stroke: #93939c; stroke-opacity: 0.2; stroke-width: 0.8"/>
     </g>
     <g id="line2d_6">
      <g>
       <use xlink:href="#m09228d15c4" x="209.73177" y="223.505755" style="fill: #707074; stroke: #707074; stroke-width: 0.8"/>
      </g>
     </g>
     <g id="text_3">
      <!-- 1.5 -->
      <g style="fill: #707074" transform="translate(201.780207 234.604192)scale(0.1 -0.1)">
       <use xlink:href="#DejaVuSerif-31"/>
       <use xlink:href="#DejaVuSerif-2e" x="63.623047"/>
       <use xlink:href="#DejaVuSerif-35" x="95.410156"/>
      </g>
     </g>
    </g>
    <g id="xtick_4">
     <g id="line2d_7">
      <path d="M 267.158871 223.505755 
L 267.158871 6.065755 
" clip-path="url(#pafa1c897bf)" style="fill: none; stroke-dasharray: 2.96,1.28; stroke-dashoffset: 0; stroke: #93939c; stroke-opacity: 0.2; stroke-width: 0.8"/>
     </g>
     <g id="line2d_8">
      <g>
       <use xlink:href="#m09228d15c4" x="267.158871" y="223.505755" style="fill: #707074; stroke: #707074; stroke-width: 0.8"/>
      </g>
     </g>
     <g id="text_4">
      <!-- 2.0 -->
      <g style="fill: #707074" transform="translate(259.207309 234.604192)scale(0.1 -0.1)">
       <defs>
        <path id="DejaVuSerif-32" d="M 819 3553 
L 469 3553 
L 469 4384 
Q 803 4563 1142 4656 
Q 1481 4750 1806 4750 
Q 2534 4750 2956 4397 
Q 3378 4044 3378 3438 
Q 3378 2753 2422 1800 
Q 2347 1728 2309 1691 
L 1131 513 
L 3078 513 
L 3078 1088 
L 3444 1088 
L 3444 0 
L 434 0 
L 434 341 
L 1850 1753 
Q 2319 2222 2519 2614 
Q 2719 3006 2719 3438 
Q 2719 3909 2473 4175 
Q 2228 4441 1797 4441 
Q 1350 4441 1106 4219 
Q 863 3997 819 3553 
z
" transform="scale(0.015625)"/>
       </defs>
       <use xlink:href="#DejaVuSerif-32"/>
       <use xlink:href="#DejaVuSerif-2e" x="63.623047"/>
       <use xlink:href="#DejaVuSerif-30" x="95.410156"/>
      </g>
     </g>
    </g>
    <g id="xtick_5">
     <g id="line2d_9">
      <path d="M 324.585972 223.505755 
L 324.585972 6.065755 
" clip-path="url(#pafa1c897bf)" style="fill: none; stroke-dasharray: 2.96,1.28; stroke-dashoffset: 0; stroke: #93939c; stroke-opacity: 0.2; stroke-width: 0.8"/>
     </g>
     <g id="line2d_10">
      <g>
       <use xlink:href="#m09228d15c4" x="324.585972" y="223.505755" style="fill: #707074; stroke: #707074; stroke-width: 0.8"/>
      </g>
     </g>
     <g id="text_5">
      <!-- 2.5 -->
      <g style="fill: #707074" transform="translate(316.63441 234.604192)scale(0.1 -0.1)">
       <use xlink:href="#DejaVuSerif-32"/>
       <use xlink:href="#DejaVuSerif-2e" x="63.623047"/>
       <use xlink:href="#DejaVuSerif-35" x="95.410156"/>
      </g>
     </g>
    </g>
    <g id="xtick_6">
     <g id="line2d_11">
      <defs>
       <path id="me7de0893e7" d="M 0 0 
L 0 -2 
" style="stroke: #707074; stroke-width: 0.6"/>
      </defs>
      <g>
       <use xlink:href="#me7de0893e7" x="48.935887" y="223.505755" style="fill: #707074; stroke: #707074; stroke-width: 0.6"/>
      </g>
     </g>
    </g>
    <g id="xtick_7">
     <g id="line2d_12">
      <g>
       <use xlink:href="#me7de0893e7" x="60.421307" y="223.505755" style="fill: #707074; stroke: #707074; stroke-width: 0.6"/>
      </g>
     </g>
    </g>
    <g id="xtick_8">
     <g id="line2d_13">
      <g>
       <use xlink:href="#me7de0893e7" x="71.906727" y="223.505755" style="fill: #707074; stroke: #707074; stroke-width: 0.6"/>
      </g>
     </g>
    </g>
    <g id="xtick_9">
     <g id="line2d_14">
      <g>
       <use xlink:href="#me7de0893e7" x="83.392147" y="223.505755" style="fill: #707074; stroke: #707074; stroke-width: 0.6"/>
      </g>
     </g>
    </g>
    <g id="xtick_10">
     <g id="line2d_15">
      <g>
       <use xlink:href="#me7de0893e7" x="106.362988" y="223.505755" style="fill: #707074; stroke: #707074; stroke-width: 0.6"/>
      </g>
     </g>
    </g>
    <g id="xtick_11">
     <g id="line2d_16">
      <g>
       <use xlink:href="#me7de0893e7" x="117.848408" y="223.505755" style="fill: #707074; stroke: #707074; stroke-width: 0.6"/>
      </g>
     </g>
    </g>
    <g id="xtick_12">
     <g id="line2d_17">
      <g>
       <use xlink:href="#me7de0893e7" x="129.333828" y="223.505755" style="fill: #707074; stroke: #707074; stroke-width: 0.6"/>
      </g>
     </g>
    </g>
    <g id="xtick_13">
     <g id="line2d_18">
      <g>
       <use xlink:href="#me7de0893e7" x="140.819248" y="223.505755" style="fill: #707074; stroke: #707074; stroke-width: 0.6"/>
      </g>
     </g>
    </g>
    <g id="xtick_14">
     <g id="line2d_19">
      <g>
       <use xlink:href="#me7de0893e7" x="163.790089" y="223.505755" style="fill: #707074; stroke: #707074; stroke-width: 0.6"/>
      </g>
     </g>
    </g>
    <g id="xtick_15">
     <g id="line2d_20">
      <g>
       <use xlink:href="#me7de0893e7" x="175.275509" y="223.505755" style="fill: #707074; stroke: #707074; stroke-width: 0.6"/>
      </g>
     </g>
    </g>
    <g id="xtick_16">
     <g id="line2d_21">
      <g>
       <use xlink:href="#me7de0893e7" x="186.760929" y="223.505755" style="fill: #707074; stroke: #707074; stroke-width: 0.6"/>
      </g>
     </g>
    </g>
    <g id="xtick_17">
     <g id="line2d_22">
      <g>
       <use xlink:href="#me7de0893e7" x="198.24635" y="223.505755" style="fill: #707074; stroke: #707074; stroke-width: 0.6"/>
      </g>
     </g>
    </g>
    <g id="xtick_18">
     <g id="line2d_23">
      <g>
       <use xlink:href="#me7de0893e7" x="221.21719" y="223.505755" style="fill: #707074; stroke: #707074; stroke-width: 0.6"/>
      </g>
     </g>
    </g>
    <g id="xtick_19">
     <g id="line2d_24">
      <g>
       <use xlink:href="#me7de0893e7" x="232.70261" y="223.505755" style="fill: #707074; stroke: #707074; stroke-width: 0.6"/>
      </g>
     </g>
    </g>
    <g id="xtick_20">
     <g id="line2d_25">
      <g>
       <use xlink:href="#me7de0893e7" x="244.188031" y="223.505755" style="fill: #707074; stroke: #707074; stroke-width: 0.6"/>
      </g>
     </g>
    </g>
    <g id="xtick_21">
     <g id="line2d_26">
      <g>
       <use xlink:href="#me7de0893e7" x="255.673451" y="223.505755" style="fill: #707074; stroke: #707074; stroke-width: 0.6"/>
      </g>
     </g>
    </g>
    <g id="xtick_22">
     <g id="line2d_27">
      <g>
       <use xlink:href="#me7de0893e7" x="278.644291" y="223.505755" style="fill: #707074; stroke: #707074; stroke-width: 0.6"/>
      </g>
     </g>
    </g>
    <g id="xtick_23">
     <g id="line2d_28">
      <g>
       <use xlink:href="#me7de0893e7" x="290.129712" y="223.505755" style="fill: #707074; stroke: #707074; stroke-width: 0.6"/>
      </g>
     </g>
    </g>
    <g id="xtick_24">
     <g id="line2d_29">
      <g>
       <use xlink:href="#me7de0893e7" x="301.615132" y="223.505755" style="fill: #707074; stroke: #707074; stroke-width: 0.6"/>
      </g>
     </g>
    </g>
    <g id="xtick_25">
     <g id="line2d_30">
      <g>
       <use xlink:href="#me7de0893e7" x="313.100552" y="223.505755" style="fill: #707074; stroke: #707074; stroke-width: 0.6"/>
      </g>
     </g>
    </g>
    <g id="xtick_26">
     <g id="line2d_31">
      <g>
       <use xlink:href="#me7de0893e7" x="336.071393" y="223.505755" style="fill: #707074; stroke: #707074; stroke-width: 0.6"/>
      </g>
     </g>
    </g>
    <g id="xtick_27">
     <g id="line2d_32">
      <g>
       <use xlink:href="#me7de0893e7" x="347.556813" y="223.505755" style="fill: #707074; stroke: #707074; stroke-width: 0.6"/>
      </g>
     </g>
    </g>
    <g id="xtick_28">
     <g id="line2d_33">
      <g>
       <use xlink:href="#me7de0893e7" x="359.042233" y="223.505755" style="fill: #707074; stroke: #707074; stroke-width: 0.6"/>
      </g>
     </g>
    </g>
    <g id="xtick_29">
     <g id="line2d_34">
      <g>
       <use xlink:href="#me7de0893e7" x="370.527653" y="223.505755" style="fill: #707074; stroke: #707074; stroke-width: 0.6"/>
      </g>
     </g>
    </g>
    <g id="text_6">
     <!-- Bond Length $R$ -->
     <g style="fill: #707074" transform="translate(175.303125 248.28388)scale(0.1 -0.1)">
      <defs>
       <path id="DejaVuSerif-42" d="M 1581 331 
L 2516 331 
Q 3078 331 3337 575 
Q 3597 819 3597 1350 
Q 3597 1878 3339 2120 
Q 3081 2363 2516 2363 
L 1581 2363 
L 1581 331 
z
M 1581 2694 
L 2375 2694 
Q 2888 2694 3123 2891 
Q 3359 3088 3359 3513 
Q 3359 3941 3123 4136 
Q 2888 4331 2375 4331 
L 1581 4331 
L 1581 2694 
z
M 353 0 
L 353 331 
L 947 331 
L 947 4331 
L 353 4331 
L 353 4666 
L 2656 4666 
Q 3363 4666 3720 4377 
Q 4078 4088 4078 3513 
Q 4078 3097 3829 2850 
Q 3581 2603 3103 2547 
Q 3697 2472 4005 2167 
Q 4313 1863 4313 1350 
Q 4313 656 3875 328 
Q 3438 0 2509 0 
L 353 0 
z
" transform="scale(0.015625)"/>
       <path id="DejaVuSerif-6f" d="M 1925 219 
Q 2388 219 2623 584 
Q 2859 950 2859 1663 
Q 2859 2375 2623 2739 
Q 2388 3103 1925 3103 
Q 1463 3103 1227 2739 
Q 991 2375 991 1663 
Q 991 950 1228 584 
Q 1466 219 1925 219 
z
M 1925 -91 
Q 1200 -91 759 389 
Q 319 869 319 1663 
Q 319 2456 758 2934 
Q 1197 3413 1925 3413 
Q 2653 3413 3092 2934 
Q 3531 2456 3531 1663 
Q 3531 869 3092 389 
Q 2653 -91 1925 -91 
z
" transform="scale(0.015625)"/>
       <path id="DejaVuSerif-6e" d="M 263 0 
L 263 331 
L 781 331 
L 781 2988 
L 231 2988 
L 231 3322 
L 1356 3322 
L 1356 2731 
Q 1516 3069 1770 3241 
Q 2025 3413 2363 3413 
Q 2913 3413 3172 3097 
Q 3431 2781 3431 2113 
L 3431 331 
L 3944 331 
L 3944 0 
L 2356 0 
L 2356 331 
L 2853 331 
L 2853 1931 
Q 2853 2541 2703 2767 
Q 2553 2994 2175 2994 
Q 1775 2994 1565 2701 
Q 1356 2409 1356 1850 
L 1356 331 
L 1856 331 
L 1856 0 
L 263 0 
z
" transform="scale(0.015625)"/>
       <path id="DejaVuSerif-64" d="M 3359 331 
L 3909 331 
L 3909 0 
L 2784 0 
L 2784 519 
Q 2616 206 2355 57 
Q 2094 -91 1709 -91 
Q 1097 -91 708 395 
Q 319 881 319 1663 
Q 319 2444 706 2928 
Q 1094 3413 1709 3413 
Q 2094 3413 2355 3264 
Q 2616 3116 2784 2803 
L 2784 4531 
L 2241 4531 
L 2241 4863 
L 3359 4863 
L 3359 331 
z
M 2784 1497 
L 2784 1825 
Q 2784 2422 2554 2737 
Q 2325 3053 1888 3053 
Q 1444 3053 1217 2703 
Q 991 2353 991 1663 
Q 991 975 1217 622 
Q 1444 269 1888 269 
Q 2325 269 2554 583 
Q 2784 897 2784 1497 
z
" transform="scale(0.015625)"/>
       <path id="DejaVuSerif-20" transform="scale(0.015625)"/>
       <path id="DejaVuSerif-4c" d="M 353 0 
L 353 331 
L 947 331 
L 947 4331 
L 353 4331 
L 353 4666 
L 2175 4666 
L 2175 4331 
L 1581 4331 
L 1581 384 
L 3713 384 
L 3713 1166 
L 4097 1166 
L 4097 0 
L 353 0 
z
" transform="scale(0.015625)"/>
       <path id="DejaVuSerif-65" d="M 3469 1600 
L 991 1600 
L 991 1575 
Q 991 903 1244 561 
Q 1497 219 1991 219 
Q 2369 219 2611 417 
Q 2853 616 2950 1006 
L 3413 1006 
Q 3275 459 2904 184 
Q 2534 -91 1931 -91 
Q 1203 -91 761 389 
Q 319 869 319 1663 
Q 319 2450 753 2931 
Q 1188 3413 1894 3413 
Q 2647 3413 3050 2948 
Q 3453 2484 3469 1600 
z
M 2791 1931 
Q 2772 2513 2545 2808 
Q 2319 3103 1894 3103 
Q 1497 3103 1269 2806 
Q 1041 2509 991 1931 
L 2791 1931 
z
" transform="scale(0.015625)"/>
       <path id="DejaVuSerif-67" d="M 3359 2988 
L 3359 72 
Q 3359 -644 2965 -1033 
Q 2572 -1422 1844 -1422 
Q 1516 -1422 1216 -1362 
Q 916 -1303 641 -1184 
L 641 -488 
L 941 -488 
Q 997 -813 1206 -963 
Q 1416 -1113 1806 -1113 
Q 2313 -1113 2548 -827 
Q 2784 -541 2784 72 
L 2784 519 
Q 2616 206 2355 57 
Q 2094 -91 1709 -91 
Q 1097 -91 708 395 
Q 319 881 319 1663 
Q 319 2444 706 2928 
Q 1094 3413 1709 3413 
Q 2094 3413 2355 3264 
Q 2616 3116 2784 2803 
L 2784 3322 
L 3909 3322 
L 3909 2988 
L 3359 2988 
z
M 2784 1825 
Q 2784 2422 2554 2737 
Q 2325 3053 1888 3053 
Q 1444 3053 1217 2703 
Q 991 2353 991 1663 
Q 991 975 1217 622 
Q 1444 269 1888 269 
Q 2325 269 2554 583 
Q 2784 897 2784 1497 
L 2784 1825 
z
" transform="scale(0.015625)"/>
       <path id="DejaVuSerif-74" d="M 691 2988 
L 184 2988 
L 184 3322 
L 691 3322 
L 691 4353 
L 1269 4353 
L 1269 3322 
L 2350 3322 
L 2350 2988 
L 1269 2988 
L 1269 878 
Q 1269 456 1350 337 
Q 1431 219 1650 219 
Q 1875 219 1978 351 
Q 2081 484 2088 781 
L 2522 781 
Q 2497 328 2275 118 
Q 2053 -91 1600 -91 
Q 1103 -91 897 129 
Q 691 350 691 878 
L 691 2988 
z
" transform="scale(0.015625)"/>
       <path id="DejaVuSerif-68" d="M 263 0 
L 263 331 
L 781 331 
L 781 4531 
L 231 4531 
L 231 4863 
L 1356 4863 
L 1356 2731 
Q 1516 3069 1770 3241 
Q 2025 3413 2363 3413 
Q 2913 3413 3172 3097 
Q 3431 2781 3431 2113 
L 3431 331 
L 3944 331 
L 3944 0 
L 2356 0 
L 2356 331 
L 2853 331 
L 2853 1931 
Q 2853 2541 2704 2764 
Q 2556 2988 2175 2988 
Q 1775 2988 1565 2697 
Q 1356 2406 1356 1850 
L 1356 331 
L 1856 331 
L 1856 0 
L 263 0 
z
" transform="scale(0.015625)"/>
       <path id="STIXGeneral-Italic-52" d="M 845 4179 
L 2458 4179 
Q 3078 4179 3420 3936 
Q 3763 3693 3763 3277 
Q 3763 2778 3341 2458 
Q 3091 2266 2502 2131 
L 3072 627 
Q 3181 333 3299 217 
Q 3418 102 3629 102 
L 3629 0 
L 2688 0 
L 1901 2074 
L 1478 2106 
L 1126 806 
Q 1043 512 1043 403 
Q 1043 256 1126 192 
Q 1210 128 1472 102 
L 1472 0 
L -83 0 
L -83 102 
Q 173 134 278 243 
Q 384 352 461 646 
L 1222 3405 
Q 1299 3699 1299 3808 
Q 1299 3923 1210 3987 
Q 1133 4038 845 4077 
L 845 4179 
z
M 1958 3795 
L 1555 2342 
Q 1754 2310 1882 2310 
Q 2451 2310 2771 2566 
Q 3091 2822 3091 3270 
Q 3091 3603 2892 3795 
Q 2694 3987 2323 3987 
Q 2010 3987 1958 3795 
z
" transform="scale(0.015625)"/>
      </defs>
      <use xlink:href="#DejaVuSerif-42" transform="translate(0 0.015625)"/>
      <use xlink:href="#DejaVuSerif-6f" transform="translate(73.486328 0.015625)"/>
      <use xlink:href="#DejaVuSerif-6e" transform="translate(133.691406 0.015625)"/>
      <use xlink:href="#DejaVuSerif-64" transform="translate(198.095703 0.015625)"/>
      <use xlink:href="#DejaVuSerif-20" transform="translate(262.109375 0.015625)"/>
      <use xlink:href="#DejaVuSerif-4c" transform="translate(293.896484 0.015625)"/>
      <use xlink:href="#DejaVuSerif-65" transform="translate(360.302734 0.015625)"/>
      <use xlink:href="#DejaVuSerif-6e" transform="translate(419.482422 0.015625)"/>
      <use xlink:href="#DejaVuSerif-67" transform="translate(483.886719 0.015625)"/>
      <use xlink:href="#DejaVuSerif-74" transform="translate(547.900391 0.015625)"/>
      <use xlink:href="#DejaVuSerif-68" transform="translate(588.085938 0.015625)"/>
      <use xlink:href="#DejaVuSerif-20" transform="translate(652.490234 0.015625)"/>
      <use xlink:href="#STIXGeneral-Italic-52" transform="translate(684.277344 0.015625)"/>
     </g>
    </g>
   </g>
   <g id="matplotlib.axis_2">
    <g id="ytick_1">
     <g id="line2d_35">
      <path d="M 45.203125 221.959488 
L 380.003125 221.959488 
" clip-path="url(#pafa1c897bf)" style="fill: none; stroke-dasharray: 2.96,1.28; stroke-dashoffset: 0; stroke: #93939c; stroke-opacity: 0.2; stroke-width: 0.8"/>
     </g>
     <g id="line2d_36">
      <defs>
       <path id="m3788aea3cc" d="M 0 0 
L 3.5 0 
" style="stroke: #707074; stroke-width: 0.8"/>
      </defs>
      <g>
       <use xlink:href="#m3788aea3cc" x="45.203125" y="221.959488" style="fill: #707074; stroke: #707074; stroke-width: 0.8"/>
      </g>
     </g>
     <g id="text_7">
      <!-- −1.2 -->
      <g style="fill: #707074" transform="translate(17.420313 225.758707)scale(0.1 -0.1)">
       <defs>
        <path id="DejaVuSerif-2212" d="M 678 2259 
L 4684 2259 
L 4684 1753 
L 678 1753 
L 678 2259 
z
" transform="scale(0.015625)"/>
       </defs>
       <use xlink:href="#DejaVuSerif-2212"/>
       <use xlink:href="#DejaVuSerif-31" x="83.789062"/>
       <use xlink:href="#DejaVuSerif-2e" x="147.412109"/>
       <use xlink:href="#DejaVuSerif-32" x="179.199219"/>
      </g>
     </g>
    </g>
    <g id="ytick_2">
     <g id="line2d_37">
      <path d="M 45.203125 191.308021 
L 380.003125 191.308021 
" clip-path="url(#pafa1c897bf)" style="fill: none; stroke-dasharray: 2.96,1.28; stroke-dashoffset: 0; stroke: #93939c; stroke-opacity: 0.2; stroke-width: 0.8"/>
     </g>
     <g id="line2d_38">
      <g>
       <use xlink:href="#m3788aea3cc" x="45.203125" y="191.308021" style="fill: #707074; stroke: #707074; stroke-width: 0.8"/>
      </g>
     </g>
     <g id="text_8">
      <!-- −1.0 -->
      <g style="fill: #707074" transform="translate(17.420313 195.10724)scale(0.1 -0.1)">
       <use xlink:href="#DejaVuSerif-2212"/>
       <use xlink:href="#DejaVuSerif-31" x="83.789062"/>
       <use xlink:href="#DejaVuSerif-2e" x="147.412109"/>
       <use xlink:href="#DejaVuSerif-30" x="179.199219"/>
      </g>
     </g>
    </g>
    <g id="ytick_3">
     <g id="line2d_39">
      <path d="M 45.203125 160.656554 
L 380.003125 160.656554 
" clip-path="url(#pafa1c897bf)" style="fill: none; stroke-dasharray: 2.96,1.28; stroke-dashoffset: 0; stroke: #93939c; stroke-opacity: 0.2; stroke-width: 0.8"/>
     </g>
     <g id="line2d_40">
      <g>
       <use xlink:href="#m3788aea3cc" x="45.203125" y="160.656554" style="fill: #707074; stroke: #707074; stroke-width: 0.8"/>
      </g>
     </g>
     <g id="text_9">
      <!-- −0.8 -->
      <g style="fill: #707074" transform="translate(17.420313 164.455773)scale(0.1 -0.1)">
       <defs>
        <path id="DejaVuSerif-38" d="M 2981 1275 
Q 2981 1775 2732 2051 
Q 2484 2328 2034 2328 
Q 1584 2328 1336 2051 
Q 1088 1775 1088 1275 
Q 1088 772 1336 495 
Q 1584 219 2034 219 
Q 2484 219 2732 495 
Q 2981 772 2981 1275 
z
M 2853 3541 
Q 2853 3966 2637 4203 
Q 2422 4441 2034 4441 
Q 1650 4441 1433 4203 
Q 1216 3966 1216 3541 
Q 1216 3113 1433 2875 
Q 1650 2638 2034 2638 
Q 2422 2638 2637 2875 
Q 2853 3113 2853 3541 
z
M 2516 2484 
Q 3047 2413 3344 2092 
Q 3641 1772 3641 1275 
Q 3641 619 3225 264 
Q 2809 -91 2034 -91 
Q 1263 -91 845 264 
Q 428 619 428 1275 
Q 428 1772 725 2092 
Q 1022 2413 1556 2484 
Q 1084 2569 832 2842 
Q 581 3116 581 3541 
Q 581 4103 968 4426 
Q 1356 4750 2034 4750 
Q 2713 4750 3100 4426 
Q 3488 4103 3488 3541 
Q 3488 3116 3236 2842 
Q 2984 2569 2516 2484 
z
" transform="scale(0.015625)"/>
       </defs>
       <use xlink:href="#DejaVuSerif-2212"/>
       <use xlink:href="#DejaVuSerif-30" x="83.789062"/>
       <use xlink:href="#DejaVuSerif-2e" x="147.412109"/>
       <use xlink:href="#DejaVuSerif-38" x="179.199219"/>
      </g>
     </g>
    </g>
    <g id="ytick_4">
     <g id="line2d_41">
      <path d="M 45.203125 130.005087 
L 380.003125 130.005087 
" clip-path="url(#pafa1c897bf)" style="fill: none; stroke-dasharray: 2.96,1.28; stroke-dashoffset: 0; stroke: #93939c; stroke-opacity: 0.2; stroke-width: 0.8"/>
     </g>
     <g id="line2d_42">
      <g>
       <use xlink:href="#m3788aea3cc" x="45.203125" y="130.005087" style="fill: #707074; stroke: #707074; stroke-width: 0.8"/>
      </g>
     </g>
     <g id="text_10">
      <!-- −0.6 -->
      <g style="fill: #707074" transform="translate(17.420313 133.804306)scale(0.1 -0.1)">
       <defs>
        <path id="DejaVuSerif-36" d="M 2094 219 
Q 2534 219 2771 542 
Q 3009 866 3009 1472 
Q 3009 2078 2771 2401 
Q 2534 2725 2094 2725 
Q 1647 2725 1412 2412 
Q 1178 2100 1178 1509 
Q 1178 888 1415 553 
Q 1653 219 2094 219 
z
M 1075 2569 
Q 1288 2803 1556 2918 
Q 1825 3034 2163 3034 
Q 2859 3034 3264 2615 
Q 3669 2197 3669 1472 
Q 3669 763 3233 336 
Q 2797 -91 2069 -91 
Q 1278 -91 853 498 
Q 428 1088 428 2181 
Q 428 3406 931 4078 
Q 1434 4750 2350 4750 
Q 2597 4750 2869 4703 
Q 3141 4656 3425 4563 
L 3425 3794 
L 3072 3794 
Q 3034 4109 2831 4275 
Q 2628 4441 2284 4441 
Q 1678 4441 1381 3981 
Q 1084 3522 1075 2569 
z
" transform="scale(0.015625)"/>
       </defs>
       <use xlink:href="#DejaVuSerif-2212"/>
       <use xlink:href="#DejaVuSerif-30" x="83.789062"/>
       <use xlink:href="#DejaVuSerif-2e" x="147.412109"/>
       <use xlink:href="#DejaVuSerif-36" x="179.199219"/>
      </g>
     </g>
    </g>
    <g id="ytick_5">
     <g id="line2d_43">
      <path d="M 45.203125 99.35362 
L 380.003125 99.35362 
" clip-path="url(#pafa1c897bf)" style="fill: none; stroke-dasharray: 2.96,1.28; stroke-dashoffset: 0; stroke: #93939c; stroke-opacity: 0.2; stroke-width: 0.8"/>
     </g>
     <g id="line2d_44">
      <g>
       <use xlink:href="#m3788aea3cc" x="45.203125" y="99.35362" style="fill: #707074; stroke: #707074; stroke-width: 0.8"/>
      </g>
     </g>
     <g id="text_11">
      <!-- −0.4 -->
      <g style="fill: #707074" transform="translate(17.420313 103.152839)scale(0.1 -0.1)">
       <defs>
        <path id="DejaVuSerif-34" d="M 2234 1581 
L 2234 4063 
L 641 1581 
L 2234 1581 
z
M 3609 0 
L 1484 0 
L 1484 331 
L 2234 331 
L 2234 1247 
L 197 1247 
L 197 1588 
L 2241 4750 
L 2859 4750 
L 2859 1581 
L 3750 1581 
L 3750 1247 
L 2859 1247 
L 2859 331 
L 3609 331 
L 3609 0 
z
" transform="scale(0.015625)"/>
       </defs>
       <use xlink:href="#DejaVuSerif-2212"/>
       <use xlink:href="#DejaVuSerif-30" x="83.789062"/>
       <use xlink:href="#DejaVuSerif-2e" x="147.412109"/>
       <use xlink:href="#DejaVuSerif-34" x="179.199219"/>
      </g>
     </g>
    </g>
    <g id="ytick_6">
     <g id="line2d_45">
      <path d="M 45.203125 68.702153 
L 380.003125 68.702153 
" clip-path="url(#pafa1c897bf)" style="fill: none; stroke-dasharray: 2.96,1.28; stroke-dashoffset: 0; stroke: #93939c; stroke-opacity: 0.2; stroke-width: 0.8"/>
     </g>
     <g id="line2d_46">
      <g>
       <use xlink:href="#m3788aea3cc" x="45.203125" y="68.702153" style="fill: #707074; stroke: #707074; stroke-width: 0.8"/>
      </g>
     </g>
     <g id="text_12">
      <!-- −0.2 -->
      <g style="fill: #707074" transform="translate(17.420313 72.501372)scale(0.1 -0.1)">
       <use xlink:href="#DejaVuSerif-2212"/>
       <use xlink:href="#DejaVuSerif-30" x="83.789062"/>
       <use xlink:href="#DejaVuSerif-2e" x="147.412109"/>
       <use xlink:href="#DejaVuSerif-32" x="179.199219"/>
      </g>
     </g>
    </g>
    <g id="ytick_7">
     <g id="line2d_47">
      <path d="M 45.203125 38.050686 
L 380.003125 38.050686 
" clip-path="url(#pafa1c897bf)" style="fill: none; stroke-dasharray: 2.96,1.28; stroke-dashoffset: 0; stroke: #93939c; stroke-opacity: 0.2; stroke-width: 0.8"/>
     </g>
     <g id="line2d_48">
      <g>
       <use xlink:href="#m3788aea3cc" x="45.203125" y="38.050686" style="fill: #707074; stroke: #707074; stroke-width: 0.8"/>
      </g>
     </g>
     <g id="text_13">
      <!-- 0.0 -->
      <g style="fill: #707074" transform="translate(25.8 41.849905)scale(0.1 -0.1)">
       <use xlink:href="#DejaVuSerif-30"/>
       <use xlink:href="#DejaVuSerif-2e" x="63.623047"/>
       <use xlink:href="#DejaVuSerif-30" x="95.410156"/>
      </g>
     </g>
    </g>
    <g id="ytick_8">
     <g id="line2d_49">
      <path d="M 45.203125 7.399219 
L 380.003125 7.399219 
" clip-path="url(#pafa1c897bf)" style="fill: none; stroke-dasharray: 2.96,1.28; stroke-dashoffset: 0; stroke: #93939c; stroke-opacity: 0.2; stroke-width: 0.8"/>
     </g>
     <g id="line2d_50">
      <g>
       <use xlink:href="#m3788aea3cc" x="45.203125" y="7.399219" style="fill: #707074; stroke: #707074; stroke-width: 0.8"/>
      </g>
     </g>
     <g id="text_14">
      <!-- 0.2 -->
      <g style="fill: #707074" transform="translate(25.8 11.198437)scale(0.1 -0.1)">
       <use xlink:href="#DejaVuSerif-30"/>
       <use xlink:href="#DejaVuSerif-2e" x="63.623047"/>
       <use xlink:href="#DejaVuSerif-32" x="95.410156"/>
      </g>
     </g>
    </g>
    <g id="ytick_9">
     <g id="line2d_51">
      <defs>
       <path id="m093138086c" d="M 0 0 
L 2 0 
" style="stroke: #707074; stroke-width: 0.6"/>
      </defs>
      <g>
       <use xlink:href="#m093138086c" x="45.203125" y="214.296621" style="fill: #707074; stroke: #707074; stroke-width: 0.6"/>
      </g>
     </g>
    </g>
    <g id="ytick_10">
     <g id="line2d_52">
      <g>
       <use xlink:href="#m093138086c" x="45.203125" y="206.633754" style="fill: #707074; stroke: #707074; stroke-width: 0.6"/>
      </g>
     </g>
    </g>
    <g id="ytick_11">
     <g id="line2d_53">
      <g>
       <use xlink:href="#m093138086c" x="45.203125" y="198.970888" style="fill: #707074; stroke: #707074; stroke-width: 0.6"/>
      </g>
     </g>
    </g>
    <g id="ytick_12">
     <g id="line2d_54">
      <g>
       <use xlink:href="#m093138086c" x="45.203125" y="183.645154" style="fill: #707074; stroke: #707074; stroke-width: 0.6"/>
      </g>
     </g>
    </g>
    <g id="ytick_13">
     <g id="line2d_55">
      <g>
       <use xlink:href="#m093138086c" x="45.203125" y="175.982287" style="fill: #707074; stroke: #707074; stroke-width: 0.6"/>
      </g>
     </g>
    </g>
    <g id="ytick_14">
     <g id="line2d_56">
      <g>
       <use xlink:href="#m093138086c" x="45.203125" y="168.319421" style="fill: #707074; stroke: #707074; stroke-width: 0.6"/>
      </g>
     </g>
    </g>
    <g id="ytick_15">
     <g id="line2d_57">
      <g>
       <use xlink:href="#m093138086c" x="45.203125" y="152.993687" style="fill: #707074; stroke: #707074; stroke-width: 0.6"/>
      </g>
     </g>
    </g>
    <g id="ytick_16">
     <g id="line2d_58">
      <g>
       <use xlink:href="#m093138086c" x="45.203125" y="145.33082" style="fill: #707074; stroke: #707074; stroke-width: 0.6"/>
      </g>
     </g>
    </g>
    <g id="ytick_17">
     <g id="line2d_59">
      <g>
       <use xlink:href="#m093138086c" x="45.203125" y="137.667954" style="fill: #707074; stroke: #707074; stroke-width: 0.6"/>
      </g>
     </g>
    </g>
    <g id="ytick_18">
     <g id="line2d_60">
      <g>
       <use xlink:href="#m093138086c" x="45.203125" y="122.34222" style="fill: #707074; stroke: #707074; stroke-width: 0.6"/>
      </g>
     </g>
    </g>
    <g id="ytick_19">
     <g id="line2d_61">
      <g>
       <use xlink:href="#m093138086c" x="45.203125" y="114.679353" style="fill: #707074; stroke: #707074; stroke-width: 0.6"/>
      </g>
     </g>
    </g>
    <g id="ytick_20">
     <g id="line2d_62">
      <g>
       <use xlink:href="#m093138086c" x="45.203125" y="107.016487" style="fill: #707074; stroke: #707074; stroke-width: 0.6"/>
      </g>
     </g>
    </g>
    <g id="ytick_21">
     <g id="line2d_63">
      <g>
       <use xlink:href="#m093138086c" x="45.203125" y="91.690753" style="fill: #707074; stroke: #707074; stroke-width: 0.6"/>
      </g>
     </g>
    </g>
    <g id="ytick_22">
     <g id="line2d_64">
      <g>
       <use xlink:href="#m093138086c" x="45.203125" y="84.027886" style="fill: #707074; stroke: #707074; stroke-width: 0.6"/>
      </g>
     </g>
    </g>
    <g id="ytick_23">
     <g id="line2d_65">
      <g>
       <use xlink:href="#m093138086c" x="45.203125" y="76.36502" style="fill: #707074; stroke: #707074; stroke-width: 0.6"/>
      </g>
     </g>
    </g>
    <g id="ytick_24">
     <g id="line2d_66">
      <g>
       <use xlink:href="#m093138086c" x="45.203125" y="61.039286" style="fill: #707074; stroke: #707074; stroke-width: 0.6"/>
      </g>
     </g>
    </g>
    <g id="ytick_25">
     <g id="line2d_67">
      <g>
       <use xlink:href="#m093138086c" x="45.203125" y="53.376419" style="fill: #707074; stroke: #707074; stroke-width: 0.6"/>
      </g>
     </g>
    </g>
    <g id="ytick_26">
     <g id="line2d_68">
      <g>
       <use xlink:href="#m093138086c" x="45.203125" y="45.713553" style="fill: #707074; stroke: #707074; stroke-width: 0.6"/>
      </g>
     </g>
    </g>
    <g id="ytick_27">
     <g id="line2d_69">
      <g>
       <use xlink:href="#m093138086c" x="45.203125" y="30.387819" style="fill: #707074; stroke: #707074; stroke-width: 0.6"/>
      </g>
     </g>
    </g>
    <g id="ytick_28">
     <g id="line2d_70">
      <g>
       <use xlink:href="#m093138086c" x="45.203125" y="22.724952" style="fill: #707074; stroke: #707074; stroke-width: 0.6"/>
      </g>
     </g>
    </g>
    <g id="ytick_29">
     <g id="line2d_71">
      <g>
       <use xlink:href="#m093138086c" x="45.203125" y="15.062086" style="fill: #707074; stroke: #707074; stroke-width: 0.6"/>
      </g>
     </g>
    </g>
    <g id="text_15">
     <!-- Total Energy(hartree) -->
     <g style="fill: #707074" transform="translate(11.198438 169.978724)rotate(-90)scale(0.1 -0.1)">
      <defs>
       <path id="DejaVuSerif-54" d="M 1222 0 
L 1222 331 
L 1819 331 
L 1819 4294 
L 447 4294 
L 447 3566 
L 63 3566 
L 63 4666 
L 4206 4666 
L 4206 3566 
L 3822 3566 
L 3822 4294 
L 2450 4294 
L 2450 331 
L 3047 331 
L 3047 0 
L 1222 0 
z
" transform="scale(0.015625)"/>
       <path id="DejaVuSerif-61" d="M 2547 1044 
L 2547 1747 
L 1806 1747 
Q 1378 1747 1168 1562 
Q 959 1378 959 997 
Q 959 650 1171 447 
Q 1384 244 1747 244 
Q 2106 244 2326 466 
Q 2547 688 2547 1044 
z
M 3122 2075 
L 3122 331 
L 3634 331 
L 3634 0 
L 2547 0 
L 2547 359 
Q 2356 128 2106 18 
Q 1856 -91 1522 -91 
Q 969 -91 644 203 
Q 319 497 319 997 
Q 319 1513 691 1797 
Q 1063 2081 1741 2081 
L 2547 2081 
L 2547 2309 
Q 2547 2688 2317 2895 
Q 2088 3103 1672 3103 
Q 1328 3103 1125 2947 
Q 922 2791 872 2484 
L 575 2484 
L 575 3156 
Q 875 3284 1158 3348 
Q 1441 3413 1709 3413 
Q 2400 3413 2761 3070 
Q 3122 2728 3122 2075 
z
" transform="scale(0.015625)"/>
       <path id="DejaVuSerif-6c" d="M 1313 331 
L 1856 331 
L 1856 0 
L 184 0 
L 184 331 
L 738 331 
L 738 4531 
L 184 4531 
L 184 4863 
L 1313 4863 
L 1313 331 
z
" transform="scale(0.015625)"/>
       <path id="DejaVuSerif-45" d="M 353 0 
L 353 331 
L 947 331 
L 947 4331 
L 353 4331 
L 353 4666 
L 4109 4666 
L 4109 3628 
L 3725 3628 
L 3725 4281 
L 1581 4281 
L 1581 2719 
L 3109 2719 
L 3109 3303 
L 3494 3303 
L 3494 1753 
L 3109 1753 
L 3109 2338 
L 1581 2338 
L 1581 384 
L 3775 384 
L 3775 1038 
L 4159 1038 
L 4159 0 
L 353 0 
z
" transform="scale(0.015625)"/>
       <path id="DejaVuSerif-72" d="M 3059 3328 
L 3059 2497 
L 2728 2497 
Q 2713 2744 2591 2866 
Q 2469 2988 2234 2988 
Q 1809 2988 1582 2694 
Q 1356 2400 1356 1850 
L 1356 331 
L 2022 331 
L 2022 0 
L 263 0 
L 263 331 
L 781 331 
L 781 2994 
L 231 2994 
L 231 3322 
L 1356 3322 
L 1356 2731 
Q 1525 3078 1790 3245 
Q 2056 3413 2438 3413 
Q 2578 3413 2733 3391 
Q 2888 3369 3059 3328 
z
" transform="scale(0.015625)"/>
       <path id="DejaVuSerif-79" d="M 1381 -609 
L 1600 -56 
L 359 2988 
L -19 2988 
L -19 3322 
L 1509 3322 
L 1509 2988 
L 978 2988 
L 1913 703 
L 2847 2988 
L 2350 2988 
L 2350 3322 
L 3597 3322 
L 3597 2988 
L 3225 2988 
L 1703 -750 
Q 1547 -1138 1356 -1280 
Q 1166 -1422 819 -1422 
Q 672 -1422 517 -1397 
Q 363 -1372 206 -1325 
L 206 -691 
L 500 -691 
Q 519 -903 608 -995 
Q 697 -1088 884 -1088 
Q 1056 -1088 1161 -992 
Q 1266 -897 1381 -609 
z
" transform="scale(0.015625)"/>
       <path id="DejaVuSerif-28" d="M 2041 -997 
Q 1281 -656 893 83 
Q 506 822 506 1931 
Q 506 3044 893 3783 
Q 1281 4522 2041 4863 
L 2041 4556 
Q 1559 4225 1350 3623 
Q 1141 3022 1141 1931 
Q 1141 844 1350 242 
Q 1559 -359 2041 -691 
L 2041 -997 
z
" transform="scale(0.015625)"/>
       <path id="DejaVuSerif-29" d="M 453 -997 
L 453 -691 
Q 934 -359 1145 242 
Q 1356 844 1356 1931 
Q 1356 3022 1145 3623 
Q 934 4225 453 4556 
L 453 4863 
Q 1216 4522 1603 3783 
Q 1991 3044 1991 1931 
Q 1991 822 1603 83 
Q 1216 -656 453 -997 
z
" transform="scale(0.015625)"/>
      </defs>
      <use xlink:href="#DejaVuSerif-54"/>
      <use xlink:href="#DejaVuSerif-6f" x="58.949219"/>
      <use xlink:href="#DejaVuSerif-74" x="119.154297"/>
      <use xlink:href="#DejaVuSerif-61" x="159.339844"/>
      <use xlink:href="#DejaVuSerif-6c" x="218.958984"/>
      <use xlink:href="#DejaVuSerif-20" x="250.941406"/>
      <use xlink:href="#DejaVuSerif-45" x="282.728516"/>
      <use xlink:href="#DejaVuSerif-6e" x="355.726562"/>
      <use xlink:href="#DejaVuSerif-65" x="420.130859"/>
      <use xlink:href="#DejaVuSerif-72" x="479.310547"/>
      <use xlink:href="#DejaVuSerif-67" x="527.113281"/>
      <use xlink:href="#DejaVuSerif-79" x="591.126953"/>
      <use xlink:href="#DejaVuSerif-28" x="647.621094"/>
      <use xlink:href="#DejaVuSerif-68" x="686.634766"/>
      <use xlink:href="#DejaVuSerif-61" x="751.039062"/>
      <use xlink:href="#DejaVuSerif-72" x="810.658203"/>
      <use xlink:href="#DejaVuSerif-74" x="858.460938"/>
      <use xlink:href="#DejaVuSerif-72" x="898.646484"/>
      <use xlink:href="#DejaVuSerif-65" x="946.449219"/>
      <use xlink:href="#DejaVuSerif-65" x="1005.628906"/>
      <use xlink:href="#DejaVuSerif-29" x="1064.808594"/>
     </g>
    </g>
   </g>
   <g id="legend_1">
    <g id="patch_3">
     <path d="M 318.282812 28.74388 
L 373.003125 28.74388 
Q 375.003125 28.74388 375.003125 26.74388 
L 375.003125 13.065755 
Q 375.003125 11.065755 373.003125 11.065755 
L 318.282812 11.065755 
Q 316.282812 11.065755 316.282812 13.065755 
L 316.282812 26.74388 
Q 316.282812 28.74388 318.282812 28.74388 
z
" style="fill: #ffffff; opacity: 0.8; stroke: #cccccc; stroke-linejoin: miter"/>
    </g>
    <g id="PathCollection_2">
     <g>
      <use xlink:href="#me26938565a" x="330.282812" y="20.039192" style="fill: #00beff; stroke: #00beff"/>
     </g>
    </g>
    <g id="text_16">
     <!-- VQE -->
     <g style="fill: #707074" transform="translate(348.282812 22.664192)scale(0.1 -0.1)">
      <defs>
       <path id="DejaVuSerif-56" d="M 1119 4331 
L 2497 750 
L 3872 4331 
L 3347 4331 
L 3347 4666 
L 4716 4666 
L 4716 4331 
L 4263 4331 
L 2597 0 
L 2059 0 
L 403 4331 
L -63 4331 
L -63 4666 
L 1638 4666 
L 1638 4331 
L 1119 4331 
z
" transform="scale(0.015625)"/>
       <path id="DejaVuSerif-51" d="M 2700 -91 
Q 1628 -91 993 567 
Q 359 1225 359 2328 
Q 359 2894 529 3339 
Q 700 3784 1050 4134 
Q 1356 4441 1750 4595 
Q 2144 4750 2625 4750 
Q 3641 4750 4266 4084 
Q 4891 3419 4891 2328 
Q 4891 1403 4422 773 
Q 3953 144 3128 -38 
Q 3297 -247 3539 -347 
Q 3781 -447 4122 -447 
L 4219 -447 
L 4219 -1025 
Q 3691 -1000 3314 -767 
Q 2938 -534 2700 -91 
z
M 2625 244 
Q 3391 244 3781 770 
Q 4172 1297 4172 2328 
Q 4172 3363 3781 3889 
Q 3391 4416 2625 4416 
Q 1856 4416 1465 3889 
Q 1075 3363 1075 2328 
Q 1075 1297 1465 770 
Q 1856 244 2625 244 
z
" transform="scale(0.015625)"/>
      </defs>
      <use xlink:href="#DejaVuSerif-56"/>
      <use xlink:href="#DejaVuSerif-51" x="72.216797"/>
      <use xlink:href="#DejaVuSerif-45" x="154.199219"/>
     </g>
    </g>
   </g>
  </g>
 </g>
 <defs>
  <clipPath id="pafa1c897bf">
   <rect x="45.203125" y="6.065755" width="334.8" height="217.44"/>
  </clipPath>
 </defs>
</svg>
